<mxfile host="app.diagrams.net" modified="2023-12-11T12:53:08.891Z" agent="Mozilla/5.0 (Macintosh; Intel Mac OS X 10.15; rv:120.0) Gecko/20100101 Firefox/120.0" etag="SEvR6are-n1Ncna-Y_x7" version="22.1.7" type="device">
  <diagram name="Page-1" id="7wSfeId7zUns3h882nv0">
    <mxGraphModel dx="2074" dy="1092" grid="1" gridSize="10" guides="1" tooltips="1" connect="1" arrows="1" fold="1" page="1" pageScale="1" pageWidth="827" pageHeight="1169" math="0" shadow="0">
      <root>
        <mxCell id="0" />
        <mxCell id="1" parent="0" />
        <mxCell id="R7u8QRBj4tWUcl5Hvf28-19" style="rounded=0;orthogonalLoop=1;jettySize=auto;html=1;exitX=0;exitY=0.3333333333333333;exitDx=0;exitDy=0;exitPerimeter=0;entryX=0.5;entryY=0;entryDx=0;entryDy=0;" edge="1" parent="1" source="R7u8QRBj4tWUcl5Hvf28-1" target="R7u8QRBj4tWUcl5Hvf28-5">
          <mxGeometry relative="1" as="geometry" />
        </mxCell>
        <mxCell id="R7u8QRBj4tWUcl5Hvf28-47" value="uses" style="edgeLabel;html=1;align=center;verticalAlign=middle;resizable=0;points=[];" vertex="1" connectable="0" parent="R7u8QRBj4tWUcl5Hvf28-19">
          <mxGeometry x="-0.4307" y="-1" relative="1" as="geometry">
            <mxPoint x="-15" y="4" as="offset" />
          </mxGeometry>
        </mxCell>
        <mxCell id="R7u8QRBj4tWUcl5Hvf28-1" value="" style="shape=umlActor;verticalLabelPosition=bottom;verticalAlign=top;html=1;outlineConnect=0;align=center;" vertex="1" parent="1">
          <mxGeometry x="237" y="10" width="30" height="60" as="geometry" />
        </mxCell>
        <mxCell id="R7u8QRBj4tWUcl5Hvf28-3" value="" style="rounded=0;whiteSpace=wrap;html=1;fillColor=none;dashed=1;align=left;" vertex="1" parent="1">
          <mxGeometry x="17" y="85" width="383" height="230" as="geometry" />
        </mxCell>
        <mxCell id="R7u8QRBj4tWUcl5Hvf28-4" value="&lt;b&gt;&lt;font style=&quot;font-size: 16px;&quot;&gt;VisualFP&lt;/font&gt;&lt;/b&gt; [Software System]" style="text;html=1;align=center;verticalAlign=middle;resizable=0;points=[];autosize=1;strokeColor=none;fillColor=none;" vertex="1" parent="1">
          <mxGeometry x="10" y="55" width="190" height="30" as="geometry" />
        </mxCell>
        <mxCell id="R7u8QRBj4tWUcl5Hvf28-5" value="&lt;div&gt;Electron App&lt;/div&gt;[Container]" style="rounded=1;whiteSpace=wrap;html=1;" vertex="1" parent="1">
          <mxGeometry x="157" y="105" width="120" height="60" as="geometry" />
        </mxCell>
        <mxCell id="R7u8QRBj4tWUcl5Hvf28-6" value="&lt;div&gt;Threepenny UI&lt;br&gt;&lt;/div&gt;[Container]" style="rounded=1;whiteSpace=wrap;html=1;" vertex="1" parent="1">
          <mxGeometry x="157" y="235" width="120" height="60" as="geometry" />
        </mxCell>
        <mxCell id="R7u8QRBj4tWUcl5Hvf28-7" value="" style="endArrow=classic;html=1;rounded=0;exitX=0.5;exitY=0;exitDx=0;exitDy=0;entryX=0.5;entryY=1;entryDx=0;entryDy=0;" edge="1" parent="1" source="R7u8QRBj4tWUcl5Hvf28-6" target="R7u8QRBj4tWUcl5Hvf28-5">
          <mxGeometry width="50" height="50" relative="1" as="geometry">
            <mxPoint x="327" y="485" as="sourcePoint" />
            <mxPoint x="377" y="435" as="targetPoint" />
          </mxGeometry>
        </mxCell>
        <mxCell id="R7u8QRBj4tWUcl5Hvf28-8" value="serves content to" style="edgeLabel;html=1;align=center;verticalAlign=middle;resizable=0;points=[];" vertex="1" connectable="0" parent="R7u8QRBj4tWUcl5Hvf28-7">
          <mxGeometry x="-0.0248" y="1" relative="1" as="geometry">
            <mxPoint x="46" as="offset" />
          </mxGeometry>
        </mxCell>
        <mxCell id="R7u8QRBj4tWUcl5Hvf28-20" value="User" style="text;html=1;align=center;verticalAlign=middle;resizable=0;points=[];autosize=1;strokeColor=none;fillColor=none;" vertex="1" parent="1">
          <mxGeometry x="229" y="62" width="50" height="30" as="geometry" />
        </mxCell>
        <mxCell id="R7u8QRBj4tWUcl5Hvf28-23" value="" style="rounded=0;whiteSpace=wrap;html=1;fillColor=none;dashed=1;align=left;" vertex="1" parent="1">
          <mxGeometry x="30" y="580" width="666" height="190" as="geometry" />
        </mxCell>
        <mxCell id="R7u8QRBj4tWUcl5Hvf28-24" value="&lt;b&gt;&lt;font style=&quot;font-size: 16px;&quot;&gt;Threepenny UI&lt;/font&gt;&lt;/b&gt; [Container]" style="text;html=1;align=center;verticalAlign=middle;resizable=0;points=[];autosize=1;strokeColor=none;fillColor=none;" vertex="1" parent="1">
          <mxGeometry x="17" y="549" width="200" height="30" as="geometry" />
        </mxCell>
        <mxCell id="R7u8QRBj4tWUcl5Hvf28-27" value="" style="endArrow=classic;html=1;rounded=0;exitX=0.5;exitY=0;exitDx=0;exitDy=0;entryX=0.5;entryY=1;entryDx=0;entryDy=0;" edge="1" parent="1" source="R7u8QRBj4tWUcl5Hvf28-26">
          <mxGeometry width="50" height="50" relative="1" as="geometry">
            <mxPoint x="334" y="975" as="sourcePoint" />
            <mxPoint x="209" y="655" as="targetPoint" />
          </mxGeometry>
        </mxCell>
        <mxCell id="R7u8QRBj4tWUcl5Hvf28-30" value="&lt;div&gt;Electron App&lt;/div&gt;[Container]" style="rounded=1;whiteSpace=wrap;html=1;" vertex="1" parent="1">
          <mxGeometry x="270" y="485" width="120" height="60" as="geometry" />
        </mxCell>
        <mxCell id="R7u8QRBj4tWUcl5Hvf28-35" style="rounded=0;orthogonalLoop=1;jettySize=auto;html=1;exitX=0.5;exitY=0;exitDx=0;exitDy=0;entryX=0;entryY=1;entryDx=0;entryDy=0;" edge="1" parent="1" source="R7u8QRBj4tWUcl5Hvf28-31" target="R7u8QRBj4tWUcl5Hvf28-30">
          <mxGeometry relative="1" as="geometry" />
        </mxCell>
        <mxCell id="R7u8QRBj4tWUcl5Hvf28-36" value="serves content to" style="edgeLabel;html=1;align=center;verticalAlign=middle;resizable=0;points=[];" vertex="1" connectable="0" parent="R7u8QRBj4tWUcl5Hvf28-35">
          <mxGeometry x="0.0646" y="-1" relative="1" as="geometry">
            <mxPoint x="47" as="offset" />
          </mxGeometry>
        </mxCell>
        <mxCell id="R7u8QRBj4tWUcl5Hvf28-37" style="edgeStyle=orthogonalEdgeStyle;rounded=0;orthogonalLoop=1;jettySize=auto;html=1;exitX=1;exitY=0.25;exitDx=0;exitDy=0;entryX=0;entryY=0.25;entryDx=0;entryDy=0;" edge="1" parent="1" source="R7u8QRBj4tWUcl5Hvf28-31" target="R7u8QRBj4tWUcl5Hvf28-32">
          <mxGeometry relative="1" as="geometry" />
        </mxCell>
        <mxCell id="R7u8QRBj4tWUcl5Hvf28-44" value="untyped&lt;br&gt;value definition" style="edgeLabel;html=1;align=center;verticalAlign=middle;resizable=0;points=[];" vertex="1" connectable="0" parent="R7u8QRBj4tWUcl5Hvf28-37">
          <mxGeometry x="-0.2897" y="-1" relative="1" as="geometry">
            <mxPoint x="19" y="-16" as="offset" />
          </mxGeometry>
        </mxCell>
        <mxCell id="R7u8QRBj4tWUcl5Hvf28-31" value="&lt;div&gt;UI&lt;br&gt;&lt;/div&gt;[Component]" style="rounded=1;whiteSpace=wrap;html=1;" vertex="1" parent="1">
          <mxGeometry x="70" y="670" width="120" height="60" as="geometry" />
        </mxCell>
        <mxCell id="R7u8QRBj4tWUcl5Hvf28-38" style="edgeStyle=orthogonalEdgeStyle;rounded=0;orthogonalLoop=1;jettySize=auto;html=1;exitX=1;exitY=0.25;exitDx=0;exitDy=0;entryX=0;entryY=0.25;entryDx=0;entryDy=0;" edge="1" parent="1" source="R7u8QRBj4tWUcl5Hvf28-32" target="R7u8QRBj4tWUcl5Hvf28-33">
          <mxGeometry relative="1" as="geometry" />
        </mxCell>
        <mxCell id="R7u8QRBj4tWUcl5Hvf28-39" value="inference&lt;br&gt;input expression" style="edgeLabel;html=1;align=center;verticalAlign=middle;resizable=0;points=[];" vertex="1" connectable="0" parent="R7u8QRBj4tWUcl5Hvf28-38">
          <mxGeometry x="-0.4867" y="-2" relative="1" as="geometry">
            <mxPoint x="29" y="-17" as="offset" />
          </mxGeometry>
        </mxCell>
        <mxCell id="R7u8QRBj4tWUcl5Hvf28-43" style="edgeStyle=orthogonalEdgeStyle;rounded=0;orthogonalLoop=1;jettySize=auto;html=1;exitX=0;exitY=0.75;exitDx=0;exitDy=0;entryX=1;entryY=0.75;entryDx=0;entryDy=0;" edge="1" parent="1" source="R7u8QRBj4tWUcl5Hvf28-32" target="R7u8QRBj4tWUcl5Hvf28-31">
          <mxGeometry relative="1" as="geometry" />
        </mxCell>
        <mxCell id="R7u8QRBj4tWUcl5Hvf28-45" value="typed&lt;br&gt;value definition" style="edgeLabel;html=1;align=center;verticalAlign=middle;resizable=0;points=[];" vertex="1" connectable="0" parent="R7u8QRBj4tWUcl5Hvf28-43">
          <mxGeometry x="0.1963" y="2" relative="1" as="geometry">
            <mxPoint x="11" y="13" as="offset" />
          </mxGeometry>
        </mxCell>
        <mxCell id="R7u8QRBj4tWUcl5Hvf28-32" value="&lt;div&gt;Translation&lt;br&gt;&lt;/div&gt;[Component]" style="rounded=1;whiteSpace=wrap;html=1;" vertex="1" parent="1">
          <mxGeometry x="312" y="670" width="120" height="60" as="geometry" />
        </mxCell>
        <mxCell id="R7u8QRBj4tWUcl5Hvf28-40" style="edgeStyle=orthogonalEdgeStyle;rounded=0;orthogonalLoop=1;jettySize=auto;html=1;exitX=0;exitY=0.75;exitDx=0;exitDy=0;entryX=1;entryY=0.75;entryDx=0;entryDy=0;" edge="1" parent="1" source="R7u8QRBj4tWUcl5Hvf28-33" target="R7u8QRBj4tWUcl5Hvf28-32">
          <mxGeometry relative="1" as="geometry" />
        </mxCell>
        <mxCell id="R7u8QRBj4tWUcl5Hvf28-42" value="inferred expression" style="edgeLabel;html=1;align=center;verticalAlign=middle;resizable=0;points=[];" vertex="1" connectable="0" parent="R7u8QRBj4tWUcl5Hvf28-40">
          <mxGeometry x="0.2212" y="3" relative="1" as="geometry">
            <mxPoint x="14" y="12" as="offset" />
          </mxGeometry>
        </mxCell>
        <mxCell id="R7u8QRBj4tWUcl5Hvf28-33" value="&lt;div&gt;Inference&lt;br&gt;&lt;/div&gt;[Component]" style="rounded=1;whiteSpace=wrap;html=1;" vertex="1" parent="1">
          <mxGeometry x="545" y="670" width="120" height="60" as="geometry" />
        </mxCell>
      </root>
    </mxGraphModel>
  </diagram>
</mxfile>
